<?xml version="1.0"?>
<svg width="282.2" height="580.98" xmlns="http://www.w3.org/2000/svg" xmlns:xlink="http://www.w3.org/1999/xlink">
 <defs>
  <filter id="filter4064">
   <feGaussianBlur stdDeviation="0.754728" id="feGaussianBlur4066"/>
  </filter>
  <filter id="filter4088">
   <feGaussianBlur stdDeviation="0.87522" id="feGaussianBlur4090"/>
  </filter>
  <filter id="filter3600">
   <feGaussianBlur stdDeviation="1.659589" id="feGaussianBlur3602"/>
  </filter>
  <filter height="1.1352" x="-0.31546" width="1.6309" y="-0.067599" id="filter3720">
   <feGaussianBlur stdDeviation="0.563329" id="feGaussianBlur3722"/>
  </filter>
  <filter id="filter3640">
   <feGaussianBlur stdDeviation="2.145252" id="feGaussianBlur3642"/>
  </filter>
  <filter id="filter3487">
   <feGaussianBlur stdDeviation="2.256429" id="feGaussianBlur3489"/>
  </filter>
  <linearGradient id="linearGradient3245">
   <stop offset="0" stop-color="#fff" id="stop3247"/>
   <stop offset="1" stop-color="#f00" id="stop3249"/>
  </linearGradient>
  <clipPath clipPathUnits="userSpaceOnUse" id="clipPath3195">
   <path d="m71.660294,34.80426c-117.949936,42.829956 -179.349991,163.859985 -222.859985,288.569946c0,0 -122.85997,-91.429932 -134.289963,-91.429932c-11.424042,0 185.719971,-231.430054 185.719971,-231.430054l171.429977,34.290039l0,0z" fill="none" stroke-width="1px" stroke="#000" id="path3197"/>
  </clipPath>
  <clipPath clipPathUnits="userSpaceOnUse" id="clipPath3203">
   <path d="m-8.339691,37.664246c135.590027,95.759949 175.340012,216.890015 222.84996,320l37.150055,-191.430054l-140.000015,-137.149963l-120,8.580017l0,0z" fill="none" stroke-width="1px" stroke="#000" id="path3205"/>
  </clipPath>
  <clipPath clipPathUnits="userSpaceOnUse" id="clipPath3225">
   <path d="m-711.199707,151.944214l-8.569946,242.860046l-140,-45.719971c43.559937,-107.100098 101.269958,-151.330078 148.569946,-197.140076z" fill="none" stroke-width="1px" stroke="#000" id="path3227"/>
  </clipPath>
  <clipPath clipPathUnits="userSpaceOnUse" id="clipPath4957">
   <path d="m204.032654,509.574036s-16.599976,18.549927 -17.860016,28.579834c-1.309982,10.480103 10.720032,33.570068 10.720032,33.570068l-25.720032,-7.150024l-0.709991,-40.709961l33.570007,-14.289917z" fill="none" stroke-width="1px" stroke="#000" id="path4959"/>
  </clipPath>
  <clipPath clipPathUnits="userSpaceOnUse" id="clipPath4965">
   <path d="m206.892685,556.003967c-13.330017,18.809937 -16.340012,37.619873 -16.429977,56.429932l-31.429993,-12.859985l21.429993,-45.710083l26.429977,2.140137z" fill="none" stroke-width="1px" stroke="#000" id="path4967"/>
  </clipPath>
  <radialGradient r="41.5" gradientTransform="matrix(.94720 0 0 .77745 25.541 144.27)" cx="486.43" cy="649.86" gradientUnits="userSpaceOnUse" id="radialGradient5194">
   <stop offset="0" stop-color="#fff" id="stop3239"/>
   <stop offset="1" stop-color="#00f" id="stop3241"/>
  </radialGradient>
  <radialGradient r="189.89" gradientTransform="matrix(1.4213 1.7915e-7 -1.0854e-7 .86117 -141.77 44.954)" cx="336.51" cy="323.81" gradientUnits="userSpaceOnUse" xlink:href="#linearGradient3245" id="radialGradient5196"/>
  <radialGradient r="189.89" gradientTransform="matrix(1 0 0 .60538 0 127.78)" cx="336.51" cy="323.81" gradientUnits="userSpaceOnUse" id="radialGradient5198">
   <stop offset="0" stop-color="#fff" id="stop3231"/>
   <stop offset="1" stop-color="#f0f" id="stop3233"/>
  </radialGradient>
  <radialGradient r="189.89" gradientTransform="matrix(-.49074 3.1875e-8 3.7478e-8 .15322 500.22 57.857)" cx="336.51" cy="323.81" gradientUnits="userSpaceOnUse" xlink:href="#linearGradient3245" id="radialGradient5200"/>
  <radialGradient r="61.396" gradientTransform="matrix(1 0 0 .95163 0 27.459)" cx="463.59" cy="538.98" gradientUnits="userSpaceOnUse" id="radialGradient5204">
   <stop offset="0" stop-color="#fff" id="stop4866"/>
   <stop offset="1" stop-color="#008000" id="stop4868"/>
  </radialGradient>
  <radialGradient r="20.786" gradientTransform="matrix(1 0 0 .89691 0 60.185)" cx="455" cy="583.79" gradientUnits="userSpaceOnUse" id="radialGradient5206">
   <stop offset="0" stop-color="#b0b0b0" id="stop4764"/>
   <stop offset="1" id="stop4766"/>
  </radialGradient>
  <radialGradient r="44.65" gradientTransform="matrix(1 0 0 .58810 0 268.49)" cx="487.43" cy="651.84" gradientUnits="userSpaceOnUse" id="radialGradient5210">
   <stop offset="0" stop-color="#813c0e" id="stop4989"/>
   <stop offset="1" stop-color="#d38d5f" id="stop4991"/>
  </radialGradient>
  <radialGradient r="39.138" gradientTransform="matrix(1 0 0 .61285 0 268.88)" cx="485.63" cy="694.52" gradientUnits="userSpaceOnUse" id="radialGradient5212">
   <stop offset="0" stop-color="#502d16" id="stop4981"/>
   <stop offset="1" stop-color="#c54e00" id="stop4983"/>
  </radialGradient>
  <linearGradient x1="-0.027503" x2="1.027503" y1="0.521724" y2="0.521724" id="linearGradient5214">
   <stop offset="0" stop-color="#fff" id="stop4971"/>
   <stop offset="1" stop-color="#6b6b6b" id="stop4973"/>
  </linearGradient>
  <radialGradient r="38.975" gradientTransform="matrix(2.8152 -1.1686 1.3367 3.2202 -949.16 -696.14)" cx="208.45" cy="429.71" gradientUnits="userSpaceOnUse" id="radialGradient5216">
   <stop offset="0" stop-color="#000080" id="stop3855"/>
   <stop offset="1" stop-opacity="0" stop-color="#000080" id="stop3857"/>
  </radialGradient>
  <radialGradient x2="1" x1="1" r="189.89" gradientTransform="matrix(1 0 0 .60538 0 127.78)" cx="336.51" cy="323.81" gradientUnits="userSpaceOnUse" id="svg_1">
   <stop offset="0" stop-color="#fff" id="stop3231"/>
   <stop offset="1" stop-color="#f0f" id="stop3233"/>
  </radialGradient>
 </defs>
 <metadata>image/svg+xmlOpenclipartparatrooper chibi2008-11-08T20:37:41A paratrooper...http://openclipart.org/detail/20044/paratrooper-chibi-by-wsnaccadwsnaccadanimecartoonchibichuteclip artclipartimagemangamediaparachuteparatrooperpngpublic domainsvg</metadata>
 <g>
  <title>background</title>
  <rect fill="none" id="canvas_background" height="402" width="582" y="-1" x="-1"/>
 </g>
 <g>
  <title>Layer 1</title>
  <g transform="rotate(3.59085 125.192 163.361)" id="layer1">
   <g transform="matrix(0.424205 0 0 0.404648 29.7968 54.042)" id="g5011">
    <rect stroke="#000" fill="url(#radialGradient5194)" stroke-width="2.9383" x="186.002669" y="507.403945" stroke-linecap="round" width="75.776" height="61.49" id="rect4830"/>
    <g stroke="#000" transform="matrix(0.84318 0 0 0.73335 203.66 -21.975)" id="g3939">
     <path d="m-159.769669,278.80426c-33.27002,-287.830017 403.699982,-297.309998 370.119965,5.119995c-30.47998,-21.27002 -47.459961,-69.970093 -71.450012,-50c-61.169937,50.929932 -103.71994,-37.130005 -112.879929,-20.810059c-19.640015,35 -70.200012,76.670044 -128.200043,21.119995c-21.849991,-20.939941 -26.309952,23.620117 -57.589981,44.570068z" fill="url(#radialGradient5196)" stroke-linecap="round" stroke-width="6" id="path2385"/>
     <path fill="url(#radialGradient5198)" stroke-width="6" stroke-linecap="round" clip-path="url(#clipPath3195)" d="m-160.912552,279.089905c-33.270081,-287.829956 403.700012,-297.309998 370.119965,5.119995c-30.480042,-21.269897 -47.459961,-69.969971 -71.450012,-50c-61.169968,50.930054 -103.719955,-37.130005 -112.879929,-20.809937c-19.640015,35 -70.200012,76.670044 -128.200073,21.119995c-21.849991,-20.940063 -26.309952,23.619995 -57.589951,44.569946z" opacity="0.51579" id="path3217"/>
     <path fill="#0f0" stroke-width="6" stroke-linecap="round" clip-path="url(#clipPath3225)" d="m-161.479019,278.953308c-33.263336,-286.53186 403.740326,-295.959167 370.166962,5.096924c-30.493042,-21.174072 -47.464722,-69.654419 -71.457092,-49.774536c-61.176163,50.700317 -103.740433,-36.962524 -112.901291,-20.716187c-19.641968,34.842285 -70.197021,76.334229 -128.20285,21.02478c-21.862137,-20.845581 -26.312668,23.513428 -57.605728,44.369019z" opacity="0.52105" id="path3215"/>
     <path d="m209.520279,282.54425l-187.029999,465.229858l-184.159973,-468.109863" fill="none" stroke-linecap="round" stroke-width="3.0392" id="path2408"/>
     <path d="m-114.079666,231.924255l136.840012,513.319946" fill="none" stroke-width="2.9337" id="path3181"/>
     <path d="m34.300323,215.014221l-11.179993,524.279907" fill="none" stroke-width="3.4216" id="path3183"/>
     <path d="m151.660294,231.944275l-125.719971,505.719971" fill="none" stroke-width="3" id="path3185"/>
     <path fill="#2539da" stroke-width="6" stroke-linecap="round" clip-path="url(#clipPath3203)" d="m-158.626755,279.947083c-33.27002,-287.829956 403.700043,-297.309937 370.119934,5.119995c-30.47998,-21.269897 -47.459961,-69.969971 -71.450012,-50c-61.169907,50.930054 -103.719894,-37.130005 -112.879898,-20.809937c-19.640045,35 -70.200012,76.670044 -128.200043,21.119995c-21.84996,-20.940063 -26.309952,23.619995 -57.589981,44.569946z" opacity="0.63684" id="path3199"/>
     <path d="m60.230301,70.514221c0,5.52002 -15.35997,10 -34.289978,10c-18.919968,0 -34.280014,-4.47998 -34.280014,-10s15.360046,-10 34.280014,-10c18.930008,0 34.289978,4.47998 34.289978,10z" fill="#fff" stroke-linecap="round" stroke-width="3" id="path3303"/>
     <path d="m87.780365,-25.365784c11.48999,-51.210999 -139.390015,-52.896973 -127.790009,0.910034c10.519989,-3.780029 16.380005,-12.450012 24.670013,-8.890015c21.119995,9.059998 35.809998,-6.609985 38.969971,-3.710022c6.780029,6.230042 24.23999,13.650024 44.259979,3.76001c7.550018,-3.719971 9.090057,4.200012 19.890045,7.929993z" fill="url(#radialGradient5200)" stroke-linecap="round" stroke-width="1.4872" id="path3281"/>
     <path fill="url(#svg_1)" stroke-width="6" stroke-linecap="round" clip-path="url(#clipPath3195)" d="m88.174591,-25.311218c11.487488,-51.213562 -139.389526,-52.900391 -127.795013,0.911011c10.524139,-3.784546 16.386993,-12.449768 24.670227,-8.896484c21.120819,9.061951 35.812439,-6.606567 38.975204,-3.702759c6.781342,6.227539 24.238663,13.641907 44.264908,3.757935c7.544388,-3.725891 9.084351,4.202637 19.884674,7.930298z" opacity="0.51579" id="path3283"/>
     <path fill="#0f0" stroke-width="6" stroke-linecap="round" clip-path="url(#clipPath3225)" d="m89.066803,-25.158508c11.484009,-51.213562 -139.389557,-52.89856 -127.798462,0.911011c10.527588,-3.784546 16.386963,-12.449768 24.670227,-8.896484c21.120789,9.061951 35.815887,-6.606567 38.978622,-3.702759c6.781326,6.227539 24.235214,13.643677 44.261429,3.757874c7.547882,-3.72583 9.084381,4.202698 19.888184,7.930359z" opacity="0.52105" id="path3285"/>
     <path d="m72.030365,-33.735779l-33.220032,113.789978" fill="none" stroke-width="3" id="path3289"/>
     <path d="m20.740326,-36.70575l2.880005,118.699951" fill="none" stroke-width="3" id="path3291"/>
     <path d="m-19.789642,-33.745789l27.329956,112.290039" fill="none" stroke-width="3" id="path3293"/>
     <path fill="#2539da" stroke-width="6" stroke-linecap="round" clip-path="url(#clipPath3203)" d="m87.384613,-25.159241c11.487488,-51.213562 -139.389557,-52.90033 -127.795044,0.911011c10.524139,-3.784546 16.386993,-12.449768 24.670258,-8.896484c21.120758,9.062012 35.812408,-6.606506 38.97522,-3.702698c6.781281,6.227539 24.238617,13.641907 44.264862,3.757874c7.544373,-3.72583 9.08432,4.202698 19.884705,7.930298z" opacity="0.63684" id="path3295"/>
     <path d="m-40.479645,-23.775757l33.339996,94.960022" fill="none" stroke-width="3" id="path3318"/>
     <path d="m88.810333,-26.785767l-29.269974,96.940002" fill="none" stroke-width="3.0297" id="path3320"/>
     <path d="m-1.079651,-30.845764l13.129974,90.919983" fill="none" stroke-width="3" id="path3322"/>
     <path d="m48.380341,-27.785767l-11.049988,88.830017" fill="none" stroke-width="3.0611" id="path3324"/>
    </g>
    <path stroke="#000" d="m190.032654,600.633972l7.480026,-42l5.729996,-15.97998l10.059998,0.959839l-6.390015,18.020142c-22.350021,6.449951 -39.360016,-30.190063 -4,-42.309937l20.36998,-40.130127l20.210037,39.200073c23.609985,-2.660034 37.47998,42.359985 -1.899963,44.5l-5.100037,-17.640015c-0.139954,-7.400024 17.000031,5.5 15.699936,-1.77002l0.89003,10.22998l6,48.589966l-21.709961,-0.849976l-12.070007,-28.689941l-15.059998,28.199951l-20.210022,-0.329956z" fill="#ffb380" stroke-width="0.63267" id="path3765"/>
    <path stroke="#000" fill="#ffb380" stroke-width="0.56978px" fill-rule="evenodd" d="m171.262665,457.393982c5.01004,15.739868 8.140015,33.039917 13.549973,45.859985c5.480026,12.980103 31.970001,19.51001 38.39006,19.980103c6.309982,-0.680176 34.599976,-9.270142 37.719971,-19.670166l13.840027,-46.169922c-28.660034,-27.219971 -59.639954,-43.640015 -103.500031,0z" id="path5879"/>
    <g stroke="#000" transform="matrix(0.16374 0 0 0.24122 433.04 529.2)" stroke-width="3.8704" id="g5889">
     <path d="m-1285.024292,-86.416748c-55.499756,-1.73999 -98.499756,20.549805 -100.359863,-15.360107c-1.900146,-36.77002 40.449951,-22.47998 97.499756,-31.780029c59.140137,-9.639893 108.929932,-56.599854 116.789917,7.730225s-78.829712,36.719727 -113.92981,39.409912z" fill="#fff" id="path5891"/>
     <path d="m-1171.094482,-125.706787c-4.309692,1.560059 -13.840088,0.449951 -21.89978,2.429932c-7.580078,1.860107 -18.689941,8.280029 -23.010254,8.110107c-9.030029,-0.370117 -15.769775,-3.280029 -23.620117,-1.76001c-15.359863,2.969971 -21.709717,12.949951 -33.609863,6.939941" fill="none" id="path5893"/>
    </g>
    <path d="m171.101837,484.664734c3.615326,16.559937 -12.704163,-12.998413 -9.135468,-33.378784c4.291718,-24.48999 27.997375,-44.390869 50.816696,-45.258545c0.27211,-6.476257 -58.747116,21.088135 -41.681229,78.637329z" fill="#e3dbdb" filter="url(#filter3487)" id="path5895"/>
    <path d="m224.34436,520.090637c13.372864,5.007568 -18.107727,1.362183 -30.648621,-9.535767c-15.060028,-13.09729 -14.616821,-35.151855 -4.050751,-49.017822c-3.506454,-3.538818 -6.935226,39.223389 34.699371,58.553589z" fill="#fca" filter="url(#filter3640)" id="path5897"/>
    <path stroke="#000" fill="url(#radialGradient5204)" stroke-width="0.45011px" fill-rule="evenodd" d="m194.582687,514.483948c-54.270004,-30.369995 -41.420044,-99.02002 18.649963,-114.789917c53.130081,-13.940002 102.820023,65.809937 39.910095,113.349976c9.869949,-27.829956 16.209976,-74.670044 8.569901,-63.680054c-10.23999,14.72998 -69.049988,13.650024 -75.689972,-0.469971c-6,-12.750122 -8.340012,35.839966 8.560013,65.589966z" id="path5899"/>
    <g stroke="#000" transform="matrix(0.77749 0 0 0.76103 100.04 491.05)" id="g5901">
     <path d="m147.437164,-20.622803s-11.289978,-5.25 -15.869995,-5.660034c-2.909973,-0.25 -11.26001,0.049988 -13.210022,1.049988c-3.820007,1.950012 -12.830017,9.910034 -12.830017,9.910034s8.530029,-7.76001 7.470032,-9.960022c-0.809998,-1.679993 -4.580017,-9.630005 0.47998,-4c8.580017,3.869995 8.480042,-1.98999 17.990051,0.720032c7.889954,2.529968 15.969971,7.940002 15.969971,7.940002z" fill="#2b0000" fill-rule="evenodd" stroke-width="0.080807px" id="path5903"/>
     <path fill="#080808" stroke-width="0.5543" stroke-opacity="0.81818" d="m99.617188,-33.142822c7.48996,-12.209961 31.519989,-28.135986 48.269989,-6.77002c-15.200012,-15.794983 -39.77002,-4.909973 -48.269989,6.77002z" opacity="0.93" id="path5905"/>
     <path d="m117.937164,-32.042847c10.350037,-2.839966 20.139954,0.720032 25.470032,6.250061" fill="none" stroke-width="0.73981" id="path5907"/>
    </g>
    <path d="m222.719421,477.777283l0.334351,15.220703l-3.327713,-4.185669l2.993362,-11.035034z" fill="#fca" filter="url(#filter3720)" id="path5909"/>
    <path d="m166.561768,464.92572c-2.74176,13.398071 -2.247742,-14.813721 4.863693,-29.904297c8.544327,-18.121704 24.712067,-26.739502 35.584793,-23.418884c2.242249,-4.482422 -34.556396,6.799377 -40.448486,53.323181z" fill="#e3dbdb" filter="url(#filter3600)" id="path5911"/>
    <g stroke="#000" transform="matrix(-0.77749 0 0 0.76103 871.13 488.87)" id="g5881">
     <path d="m822.422852,-20.622803s-11.290039,-5.25 -15.869995,-5.660034c-2.909973,-0.25 -11.259949,0.049988 -13.209961,1.049988c-3.820068,1.950012 -12.830078,9.910034 -12.830078,9.910034s8.530029,-7.76001 7.470093,-9.960022c-0.809998,-1.679993 -4.580078,-9.630005 0.47998,-4c8.579956,3.869995 8.47998,-1.98999 17.990051,0.720032c7.889954,2.529968 15.96991,7.940002 15.96991,7.940002z" fill="#2b0000" fill-rule="evenodd" stroke-width="0.080807px" id="path5883"/>
     <path fill="#080808" stroke-width="0.5543" stroke-opacity="0.81818" d="m774.602905,-30.512817c7.48999,-12.210022 31.52002,-28.138 48.27002,-6.77002c-15.200073,-15.796997 -39.77002,-4.909973 -48.27002,6.77002z" opacity="0.93" id="path5885"/>
     <path d="m792.922852,-32.042847c10.350037,-2.839966 20.140076,0.720032 25.470032,6.250061" fill="none" stroke-width="0.73981" id="path5887"/>
    </g>
    <rect stroke="#000" fill="#333" stroke-width="3" x="213.312669" y="471.003945" stroke-linecap="round" width="21.429" height="5.7143" id="rect4776"/>
    <path stroke="#000" fill="url(#radialGradient5206)" stroke-width="3" stroke-linecap="round" d="m216.488525,474.575623a16.737934,12.451988 0 1 1 -33.482819,0a16.737934,12.451988 0 1 1 33.482819,0z" id="path4758"/>
    <path stroke="#000" fill="url(#radialGradient5206)" stroke-width="3" stroke-linecap="round" d="m263.629517,473.145691a16.737934,12.451988 0 1 1 -33.482803,0a16.737934,12.451988 0 1 1 33.482803,0z" id="path4770"/>
    <path stroke="#000" fill="url(#radialGradient5210)" stroke-width="1px" fill-rule="evenodd" d="m199.242676,515.733948s15.169983,8.660034 24.240051,8.080078c7.989929,-0.51001 23.239914,-9.090088 23.239914,-9.090088s20.38002,7.550049 22.220108,16.160156c2.099915,9.809937 -10.100098,33.339844 -10.100098,33.339844c-50.229996,4.220093 -41.349915,-0.5 -67.680008,2.02002c0,0 -11.839951,-21.429932 -10.09996,-31.319946c1.669998,-9.519897 18.179993,-19.190063 18.179993,-19.190063z" id="path4862"/>
    <path stroke="#000" d="m200.252686,533.914001l3.029953,12.119873" fill="none" stroke-width="1px" id="path4872"/>
    <path stroke="#000" fill="#241f1c" stroke-linecap="round" transform="rotate(30.53 -262.397 -111.356)" d="m495.572601,167.683899l10.599976,-0.869934l1.390076,54.029968l-12.159973,1.209961l0.169922,-54.369995z" id="rect4885"/>
    <path stroke="#000" d="m247.77269,534.924011l-2.02002,10.099854" fill="none" stroke-width="1px" id="path4874"/>
    <path stroke="#000" fill="url(#radialGradient5212)" stroke-width="1px" fill-rule="evenodd" d="m200.752609,559.673889l-8.079956,7.580078l-8.080002,36.869995l25.259995,2.019897l13.630081,-30.309814l14.149902,30.809937l24.240051,-2.02002l-3.540039,-36.869995l-57.580032,-8.080078z" id="path4895"/>
    <path stroke="#000" fill="#c87137" stroke-width="1px" clip-path="url(#clipPath4965)" fill-rule="evenodd" d="m200.752609,559.673889l-8.079956,7.580078l-8.080002,36.869995l25.259995,2.019897l13.630081,-30.309814l14.149902,30.809937l24.240051,-2.02002l-3.540039,-36.869995l-57.580032,-8.080078z" id="path4961"/>
    <path stroke="#000" d="m192.172699,559.673889l65.659943,0l0,9.130127l-65.659943,0l0,-9.130127z" fill="#000080" stroke-linecap="round" id="rect4887"/>
    <path stroke="#000" d="m191.862656,549.573914l17.420059,-8.299927l8.509933,11.959961c-6.779953,5.559937 -12.799973,11.559937 -26.070007,13.219971c-0.48999,-0.539917 -3.589951,-5.75 -8,-17.01001" fill="#d38d5f" stroke-linecap="round" id="rect4876"/>
    <path stroke="#000" fill="#fca" stroke-width="1px" clip-path="url(#clipPath4957)" fill-rule="evenodd" d="m199.242676,515.733948s15.169983,8.660034 24.240051,8.080078c7.989929,-0.51001 23.239914,-9.090088 23.239914,-9.090088s20.38002,7.550049 22.220108,16.160156c2.099915,9.809937 -10.100098,33.339844 -10.100098,33.339844c-50.229996,4.220093 -41.349915,-0.5 -67.680008,2.02002c0,0 -11.839951,-21.429932 -10.09996,-31.319946c1.669998,-9.519897 18.179993,-19.190063 18.179993,-19.190063z" id="path4953"/>
    <path stroke="#000" fill="#241f1c" stroke-linecap="round" transform="rotate(-32.311 -262.397 -111.356)" d="m-218.648331,664.62384l11.110962,0l0.796066,52.22998l-11.111053,0l-0.795975,-52.22998z" id="rect4883"/>
    <path stroke="#000" fill="#ffb380" stroke-width="0.54741" stroke-linecap="round" d="m212.642639,538.443909c1.440063,-2.139893 4.560059,-0.47998 5.370056,2.75c2.409973,0.929932 2.519943,2.119995 3.01001,4.22998c2.309998,3.810059 1.039978,4.490112 0.779968,6.119995c2.090012,4.550049 -3.26001,5.800049 -7.779968,8.090088c-12.02002,4.359863 -24.500015,-11.660034 -12.02002,-19.219971c1.490051,7.089966 7.750046,0 10.639954,-1.970093z" stroke-linejoin="round" id="path3811"/>
    <path stroke="#000" d="m258.142639,547.553894l-17.929993,-7.789917l-8.510025,11.959961c6.780045,5.549927 12.799988,11.560059 26.070023,13.209961c0.48999,-0.530029 3.590088,-5.73999 8,-17.01001" fill="#d38d5f" stroke-linecap="round" id="path4879"/>
    <path stroke="#000" fill="#ffb380" stroke-width="0.54741" stroke-linecap="round" d="m237.812668,536.933899c-1.439987,-2.149902 -4.569992,-0.48999 -5.370041,2.75c-2.409973,0.930054 -2.519974,2.109985 -3.019958,4.22998c-2.309998,3.800049 -1.030029,4.47998 -0.77002,6.109985c-2.089981,4.550049 3.25,5.800049 7.77002,8.089966c12.019958,4.370117 24.51001,-12.159912 12.029968,-19.719849c-1.5,7.089966 -7.750015,0.5 -10.639969,-1.460083z" stroke-linejoin="round" id="path4881"/>
    <path stroke="#000" d="m215.912659,560.173889c7.799973,-4.359863 13.009995,-2.209961 18.179993,0l0,9.100098c-6.059998,2.689941 -12.12001,2.689941 -18.179993,0l0,-9.100098z" fill="url(#linearGradient5214)" stroke-linecap="round" id="rect4892"/>
    <g transform="matrix(0.98665 0.16283 -0.16283 0.98665 122.44 -61.399)" id="g4937">
     <g stroke="#000" transform="matrix(0.59325 0 0 0.37466 141.97 573.32)" id="g3794">
      <path d="m93.032166,205.817383c0,14.589844 -2.5,17.139893 -21.429993,17.139893c-18.919983,0 -27.140015,-0.409912 -27.140015,-15s5.359985,-27.849976 24.280029,-27.849976c18.929993,0 24.289978,11.119995 24.289978,25.710083z" fill="#502d16" id="path3770"/>
      <rect fill="#803300" x="45.352165" y="215.867298" stroke-linecap="round" width="47.701" height="8.0534" stroke-linejoin="round" id="rect3781"/>
      <path d="m79.42218,181.177246c0,3.080078 -4.440002,5.570068 -9.910065,5.570068s-9.909943,-2.48999 -9.909943,-5.570068c1.429993,-0.75 16.77002,0.080078 19.820007,0z" fill="#d45500" stroke-linecap="round" stroke-linejoin="round" id="path3785"/>
      <path d="m56.222168,180.277344c0.719971,-16.160034 24.200012,14.109985 24.100037,0c-0.730042,-15.840088 -23.829956,13.569946 -24.100037,0z" fill="none" stroke-width="2" id="path3791"/>
     </g>
     <path stroke="#fff" fill="#fff" stroke-linecap="round" d="m175.424774,647.163269a1.736623,2.549747 0 1 1 -3.475494,-2.109619a1.736623,2.549747 0 1 1 3.475494,2.109619z" stroke-linejoin="round" opacity="0.94737" id="path4618"/>
    </g>
    <g transform="matrix(0.98619 -0.16564 0.16564 0.98619 -113.26 99.474)" id="g4929">
     <g stroke="#000" transform="matrix(0.59325 0 0 0.37466 196.4 573.32)" id="g3800">
      <path d="m154.897934,-24.089111c0,14.589966 -2.5,17.140015 -21.429993,17.140015c-18.919975,0 -27.140007,-0.410034 -27.140007,-15s5.359985,-27.849976 24.280022,-27.849976c18.929932,0 24.289978,11.119995 24.289978,25.709961z" fill="#502d16" id="path3802"/>
      <rect fill="#803300" x="107.217921" y="-14.039153" stroke-linecap="round" width="47.701" height="8.0534" stroke-linejoin="round" id="rect3804"/>
      <path d="m141.287888,-48.729126c0,3.079956 -4.440002,5.569946 -9.909973,5.569946s-9.909966,-2.48999 -9.909966,-5.569946c1.429993,-0.75 16.770012,0.079956 19.819939,0z" fill="#d45500" stroke-linecap="round" stroke-linejoin="round" id="path3806"/>
      <path d="m118.087944,-49.62915c0.719971,-16.160034 24.199944,14.109985 24.099968,0c-0.72998,-15.839966 -23.829948,13.570068 -24.099968,0z" fill="none" stroke-width="2" id="path3809"/>
     </g>
     <path stroke="#fff" fill="#fff" stroke-linecap="round" d="m265.936615,561.696655a1.736623,2.549747 0 1 1 -3.475525,-2.109741a1.736623,2.549747 0 1 1 3.475525,2.109741z" stroke-linejoin="round" opacity="0.94737" id="path4620"/>
    </g>
    <g transform="matrix(0.64625 0.76313 0.76313 -0.64625 -308.85 508.23)" stroke-linecap="round" stroke-linejoin="round" id="g4947">
     <path stroke="#000" fill="url(#radialGradient5216)" filter="url(#filter4088)" d="m353.009155,497.847534c6.859497,16.221313 -5.878052,33.092346 -16.169678,33.191895c-9.092773,0.090088 -21.8255,-11.161926 -18.567383,-26.728943c3.678589,-17.568054 16.140686,-27.833801 22.758423,-43.182678c-1.744995,15.239868 5.124023,20.498413 11.978638,36.719727z" id="path5913"/>
     <path stroke="#fff" fill="#e3dbdb" stroke-width="0.58762" filter="url(#filter4064)" d="m319.664246,507.843018c0,6.704712 3.509521,14.727661 6.21167,15.524292c-7.086609,-7.188354 3.582092,-37.321838 6.042542,-42.964478c-5.945801,9.260498 -11.683777,19.279724 -12.254211,27.440186z" id="path5915"/>
    </g>
    <path stroke="#000" fill="#ea0c1e" stroke-linecap="round" d="m234.029785,438.149597l-10.500015,18.920044l-11.139938,-18.559937l21.639954,-0.360107z" id="path4995"/>
    <path stroke="#000" fill="#ff0" stroke-linecap="round" d="m265.650269,527.986633l-0.025635,5.266602l3.903564,3.009399l-4.531738,1.604126l-1.378113,5.046509l-2.775452,-4.279907l-4.762451,0.106445l2.820313,-4.244507l-1.563965,-4.982666l4.518921,1.653809l3.794556,-3.17981z" id="path4997"/>
    <path stroke="#000" fill="#ff0" stroke-linecap="round" d="m189.065491,529.451965l2.424377,3.903931l5.029175,-0.413208l-3.468689,4.241943l1.064392,4.654175l-4.570679,-1.285645l-4.379471,3.292358l0.649734,-5.035645l-3.770691,-2.621826l4.971191,-1.828857l2.050659,-4.907227z" opacity="0.71579" id="path4999"/>
   </g>
  </g>
 </g>
</svg>